<svg class="icon" viewBox="0 0 1024 1024" xmlns="http://www.w3.org/2000/svg" width="200" height="200"><defs><style/></defs><path d="M957.867 170.667C955.733 110.933 906.667 64 846.933 64H844.8 83.2c-4.267 0-10.667 2.133-14.933 6.4-2.134 4.267-6.4 8.533-6.4 14.933v761.6C64 908.8 113.067 960 174.933 960H541.867c25.6 0 29.866-10.667 29.866-21.333v-384h172.8v381.866c0 6.4 4.267 12.8 8.534 17.067 4.266 4.267 8.533 6.4 14.933 6.4h168.533c10.667 0 21.334-8.533 21.334-21.333V172.8v-2.133zm-42.667 4.266c0 2.134 2.133 2.134 0 0v134.4c0 44.8-40.533 74.667-85.333 74.667s-83.2-29.867-83.2-72.533V106.667H704V311.467c-2.133 44.8-42.667 72.533-87.467 72.533s-83.2-29.867-83.2-72.533V106.667h-42.666V311.467C488.533 356.267 448 384 403.2 384s-81.067-27.733-83.2-72.533v-204.8h-42.667v204.8C275.2 356.267 234.667 384 189.867 384c-46.934 0-83.2-29.867-83.2-74.667V106.667H849.067c34.133 0 66.133 32 66.133 68.266zm-810.667 672V396.8c23.467 19.2 53.334 29.867 85.334 29.867 44.8 0 83.2-19.2 106.666-51.2 23.467 32 61.867 51.2 106.667 51.2 44.8 0 83.2-19.2 106.667-51.2 23.466 32 61.866 51.2 106.666 51.2s83.2-19.2 106.667-51.2c23.467 32 61.867 51.2 106.667 51.2 34.133 0 64-10.667 87.466-29.867v520.533h-128v-384c0-12.8-8.533-21.333-21.333-21.333H554.667c-12.8 0-21.334 8.533-21.334 21.333v384H179.2 174.933c-36.266 0-70.4-32-70.4-70.4z"/></svg>